<svg width="86" height="86" viewBox="0 0 86 86" fill="none" xmlns="http://www.w3.org/2000/svg">
    <path d="M76.7328 0H56.8331C52.4646 0 46.6225 2.4198 43.5341 5.50885L2.70587 46.3364C0.960572 48.0811 0 50.4077 0 52.8885C0 55.3693 0.961228 57.696 2.70587 59.4406L26.5587 83.2941C28.3034 85.0388 30.6307 86 33.1108 86C35.5917 86 37.9183 85.0388 39.6636 83.2941L80.4911 42.4659C83.5802 39.3775 86 33.5354 86 29.1669V9.26584C85.9993 4.15657 81.8421 0 76.7328 0ZM71.9031 17.8047C71.434 18.2732 70.7844 18.5422 70.121 18.5422C69.457 18.5422 68.8088 18.2732 68.3403 17.8047C67.8699 17.3362 67.6015 16.6866 67.6015 16.0226C67.6015 15.3593 67.8699 14.711 68.3403 14.2419C68.8088 13.7734 69.457 13.5051 70.121 13.5051C70.7844 13.5051 71.434 13.7734 71.9031 14.2419C72.3716 14.711 72.6406 15.3593 72.6406 16.0226C72.6406 16.6866 72.3716 17.3362 71.9031 17.8047Z" fill="#941B0C"/>
    <path d="M33.1096 64.326C32.0574 65.3782 31.0222 66.1079 30.004 66.5152C28.9857 66.8999 28.041 67.03 27.1699 66.9055C26.2987 66.7584 25.5747 66.419 24.9977 65.8873C24.8958 65.7855 24.8449 65.6667 24.8449 65.5309C24.8449 65.3951 24.8958 65.2763 24.9977 65.1745L26.508 63.6641C26.6551 63.5171 26.7965 63.4435 26.9323 63.4435C27.0681 63.4209 27.2095 63.4265 27.3566 63.4605C27.6394 63.6076 27.9845 63.6924 28.3918 63.715C28.7877 63.7264 29.2177 63.6359 29.6815 63.4435C30.1567 63.2399 30.6489 62.8835 31.158 62.3744C31.9726 61.5598 32.4421 60.8187 32.5665 60.1512C32.7023 59.4724 32.5382 58.9011 32.0744 58.4372C31.7463 58.1091 31.3786 57.9564 30.9713 57.979C30.5527 57.9903 30.0379 58.143 29.427 58.4372C28.816 58.7087 28.0524 59.1217 27.1359 59.6761C26.0838 60.3209 25.1278 60.7905 24.2679 61.0846C23.4081 61.3561 22.6105 61.4184 21.8751 61.2713C21.151 61.1129 20.4495 60.6943 19.7707 60.0155C19.1145 59.3593 18.7072 58.6013 18.5488 57.7414C18.4018 56.8703 18.5092 55.9595 18.8713 55.0092C19.2446 54.0475 19.8895 53.1084 20.8059 52.192C21.5413 51.4566 22.2937 50.9079 23.063 50.5459C23.821 50.1725 24.5508 49.9632 25.2522 49.918C25.9424 49.8614 26.5703 49.9236 27.1359 50.1047C27.7016 50.263 28.1655 50.512 28.5275 50.8514C28.618 50.9419 28.669 51.0607 28.6803 51.2077C28.6916 51.3322 28.6407 51.451 28.5275 51.5641L26.9493 53.1424C26.8588 53.2329 26.7456 53.3008 26.6099 53.346C26.4741 53.3913 26.3157 53.38 26.1347 53.3121C25.7161 53.0293 25.1956 52.9501 24.5734 53.0745C23.9511 53.199 23.3459 53.5553 22.7575 54.1437C22.1466 54.7546 21.7676 55.3599 21.6205 55.9595C21.4734 56.5591 21.6375 57.0965 22.1127 57.5717C22.4294 57.8885 22.7858 58.0639 23.1818 58.0978C23.5778 58.1091 24.0586 57.9903 24.6243 57.7414C25.2013 57.4812 25.9197 57.1022 26.7796 56.6044C27.9562 55.8577 28.9914 55.3203 29.8852 54.9922C30.779 54.6641 31.5879 54.5792 32.312 54.7376C33.0247 54.8847 33.7149 55.292 34.3824 55.9595C35.1291 56.7062 35.5647 57.5491 35.6891 58.4881C35.8136 59.4045 35.6552 60.3662 35.2139 61.3731C34.7727 62.38 34.0713 63.3643 33.1096 64.326ZM40.1117 56.9845C39.9985 57.0976 39.8628 57.1542 39.7044 57.1542C39.546 57.1542 39.4102 57.0976 39.2971 56.9845L28.2492 45.9367C28.1248 45.8122 28.0626 45.6708 28.0626 45.5124C28.0626 45.354 28.1191 45.2182 28.2323 45.1051L35.6993 37.6381C35.8238 37.5136 35.9652 37.4514 36.1236 37.4514C36.282 37.4514 36.4234 37.5136 36.5478 37.6381L37.6679 38.7581C37.781 38.8712 37.8376 39.007 37.8376 39.1654C37.8376 39.3238 37.7754 39.4652 37.6509 39.5897L32.0676 45.173L35.0714 48.1768L40.2814 42.9668C40.4058 42.8424 40.5472 42.7801 40.7056 42.7801C40.8527 42.7688 40.9885 42.8254 41.1129 42.9498L42.1651 44.002C42.2896 44.1265 42.3518 44.2679 42.3518 44.4263C42.3405 44.5734 42.2726 44.7091 42.1481 44.8336L36.9382 50.0435L40.0438 53.1492L45.7629 47.4301C45.8873 47.3056 46.0287 47.2434 46.1871 47.2434C46.3455 47.2434 46.4869 47.3056 46.6114 47.4301L47.7314 48.5501C47.8446 48.6633 47.9012 48.799 47.9012 48.9574C47.9012 49.1158 47.8389 49.2572 47.7145 49.3817L40.1117 56.9845ZM50.6685 46.4276C50.5554 46.5408 50.4196 46.5973 50.2613 46.5973C50.1029 46.5973 49.9671 46.5408 49.854 46.4276L38.7892 35.3628C38.676 35.2497 38.6194 35.1139 38.6194 34.9555C38.6194 34.7971 38.676 34.6614 38.7892 34.5482L40.3674 32.97C40.4806 32.8568 40.6163 32.8003 40.7747 32.8003C40.9331 32.8003 41.0689 32.8568 41.182 32.97L50.6346 42.4226L56.0143 37.0429C56.1387 36.9184 56.2801 36.8562 56.4385 36.8562C56.5969 36.8562 56.7384 36.9184 56.8628 37.0429L58.0507 38.2308C58.1639 38.344 58.2204 38.4797 58.2204 38.6381C58.2204 38.7965 58.1582 38.9379 58.0338 39.0624L50.6685 46.4276ZM60.5128 36.5834C60.3997 36.6965 60.2639 36.7531 60.1055 36.7531C59.9471 36.7531 59.8113 36.6965 59.6982 36.5834L48.6334 25.5186C48.5203 25.4054 48.4637 25.2697 48.4637 25.1113C48.4637 24.9529 48.5203 24.8171 48.6334 24.704L50.2117 23.1257C50.3248 23.0126 50.4606 22.956 50.619 22.956C50.7774 22.956 50.9131 23.0126 51.0263 23.1257L60.4789 32.5783L65.8585 27.1986C65.983 27.0742 66.1244 27.012 66.2828 27.012C66.4412 27.012 66.5826 27.0742 66.7071 27.1986L67.895 28.3866C68.0081 28.4997 68.0647 28.6355 68.0647 28.7939C68.0647 28.9523 68.0025 29.0937 67.878 29.2181L60.5128 36.5834Z" fill="white"/>
</svg>
